<svg width="320" height="340" viewBox="0 0 320 340" fill="none" xmlns="http://www.w3.org/2000/svg" role="img" aria-label="Aligned with Saudi Vision 2030">
  <g transform="translate(160,140)">
    <circle r="118" fill="none" stroke="#B78024" stroke-width="2"/>
    <circle r="104" fill="none" stroke="#B78024" stroke-width="0.8" stroke-opacity="0.5"/>
    <g stroke="#B78024" stroke-width="2" stroke-linecap="round" stroke-opacity="0.85">
      <line x1="0" y1="-118" x2="0" y2="-104"/>
      <line x1="83" y1="-83" x2="74" y2="-74"/>
      <line x1="118" y1="0" x2="104" y2="0"/>
      <line x1="83" y1="83" x2="74" y2="74"/>
      <line x1="0" y1="118" x2="0" y2="104"/>
      <line x1="-83" y1="83" x2="-74" y2="74"/>
      <line x1="-118" y1="0" x2="-104" y2="0"/>
      <line x1="-83" y1="-83" x2="-74" y2="-74"/>
    </g>
    <g stroke="#B78024" stroke-width="2" fill="none" stroke-linecap="round" stroke-opacity="0.55">
      <path d="M-66 -8 A66 66 0 0 1 66 -8"/>
      <path d="M-44 -8 A44 44 0 0 1 44 -8"/>
      <path d="M-22 -8 A22 22 0 0 1 22 -8"/>
    </g>
    <g stroke="#8A5F1C" stroke-width="4" fill="none" stroke-linecap="round" stroke-linejoin="round">
      <path d="M-30 22 L-6 -2 L12 16 L40 -16"/>
      <path d="M22 -16 L40 -16 L40 2"/>
    </g>
    <text x="0" y="62" text-anchor="middle" fill="#8A5F1C" font-family="Georgia, 'Times New Roman', serif" font-size="44" font-weight="700" letter-spacing="4">2030</text>
  </g>
  <text x="160" y="300" text-anchor="middle" fill="#8A5F1C" font-family="'Segoe UI', Tahoma, sans-serif" font-size="22" font-weight="700">رؤية السعودية ٢٠٣٠</text>
  <text x="160" y="326" text-anchor="middle" fill="#B78024" font-family="Georgia, serif" font-size="13" font-weight="400" letter-spacing="6">SAUDI VISION</text>
</svg>
